#!OML:ASF H:\Terrain\Patient Classification 1\Terrain2\Thursday\justin.ASF
:FULLY-SPECIFIED
:DEGREES
2679
root 28.669 17.6942 -0.516991 -11.7856 79.5238 349.702
lowerback 5.03984 1.05373 0.910248
upperback 2.1935 1.51513 2.12204
thorax -0.604918 0.774849 1.58416
lowerneck -14.6809 -3.12787 -10.056
upperneck 31.7281 -2.89111 6.2361
head 13.3869 -1.3742 3.83291
rclavicle 2.11706e-014 0
rhumerus -32.6588 -14.3869 -76.8009
rradius 24.5028
rwrist -5.57671
rhand -18.8913 11.5109
rfingers 7.12502
rthumb 7.41008 -18.3393
lclavicle 2.11706e-014 0
lhumerus -34.7873 6.52471 82.7444
lradius 34.1216
lwrist 4.97245
lhand -21.0012 22.0692
lfingers 7.12502
lthumb 5.37323 51.9811
rfemur -8.6875 -4.82901 21.4917
rtibia 36.9695
rfoot -23.7369 -1.94958
rtoes 2.66961
lfemur -10.1174 3.41712 -19.2103
ltibia 30.4922
lfoot -14.6531 -11.6866
ltoes 14.669
2680
root 28.6835 17.6963 -0.526865 -10.7866 79.1826 350.639
lowerback 5.0656 1.02898 0.826447
upperback 2.19773 1.47637 2.0355
thorax -0.613961 0.754717 1.54389
lowerneck -14.7011 -3.2792 -10.1199
upperneck 31.7952 -3.16081 6.4273
head 13.4534 -1.47708 3.88151
rclavicle -1.06847e-014 1.19271e-015
rhumerus -32.8377 -14.3268 -76.8543
rradius 24.7318
rwrist -6.01632
rhand -18.9773 11.4717
rfingers 7.12502
rthumb 7.32708 -18.3814
lclavicle -1.06847e-014 1.19271e-015
lhumerus -34.7486 5.78424 82.9518
lradius 34.1068
lwrist 5.68241
lhand -20.7203 22.1177
lfingers 7.12502
lthumb 5.64441 52.0225
rfemur -8.79894 -5.13907 21.2578
rtibia 37.0754
rfoot -23.3088 -3.91562
rtoes 4.62238
lfemur -10.0384 3.39057 -19.4097
ltibia 30.3803
lfoot -14.8272 -11.2828
ltoes 14.4213
2681
root 28.6925 17.7005 -0.530959 -10.2559 78.7025 351.093
lowerback 5.11662 1.00725 0.620766
upperback 2.21236 1.44064 2.13767
thorax -0.634154 0.735871 1.76553
lowerneck -14.655 -3.39322 -10.3697
upperneck 31.7739 -3.31526 6.57656
head 13.4608 -1.55835 3.95997
rclavicle 1.4064e-014 -2.78299e-015
rhumerus -32.8911 -14.0649 -76.8141
rradius 24.9087
rwrist -6.16088
rhand -19.1021 11.5884
rfingers 7.12502
rthumb 7.20664 -18.2689
lclavicle 1.4064e-014 -2.78299e-015
lhumerus -34.7003 5.54653 83.2824
lradius 33.9522
lwrist 5.90087
lhand -21.0015 22.2807
lfingers 7.12502
lthumb 5.37289 52.1926
rfemur -8.93693 -5.53496 21.1563
rtibia 37.109
rfoot -22.9539 -5.80036
rtoes 7.25679
lfemur -10.0103 3.57142 -19.4291
ltibia 30.2953
lfoot -14.9166 -11.1178
ltoes 15.1018
2682
root 28.6985 17.7046 -0.527731 -9.43477 78.1 351.844
lowerback 5.13356 0.990494 0.251423
upperback 2.30052 1.40232 2.23691
thorax -0.563058 0.714667 2.07797
lowerneck -14.7365 -3.50435 -10.6616
upperneck 31.696 -3.44072 6.70786
head 13.4701 -1.63532 4.04021
rclavicle 3.97569e-015 8.34896e-015
rhumerus -32.7235 -13.8261 -76.9206
rradius 25.0848
rwrist -6.22212
rhand -19.0319 11.653
rfingers 7.12502
rthumb 7.27439 -18.2019
lclavicle 3.97569e-015 8.34896e-015
lhumerus -34.4989 5.79931 83.4247
lradius 33.6216
lwrist 5.44183
lhand -21.3649 22.2244
lfingers 7.12502
lthumb 5.022 52.1449
rfemur -9.05762 -6.05101 21.0013
rtibia 37.0632
rfoot -22.8815 -7.37261
rtoes 11.5199
lfemur -10.0141 4.06709 -19.4537
ltibia 30.3035
lfoot -15.0481 -11.0495
ltoes 15.2334
2683
root 28.7066 17.708 -0.532896 -11.9755 77.3246 349.17
lowerback 5.18438 0.977434 0.846428
upperback 2.36835 1.41999 2.44697
thorax -0.513327 0.72834 1.95898
lowerneck -14.756 -3.6701 -10.9014
upperneck 31.6137 -3.68212 6.88652
head 13.4774 -1.75034 4.11199
rclavicle 2.89232e-014 6.75868e-015
rhumerus -32.7042 -13.735 -77.0417
rradius 25.4711
rwrist -6.30892
rhand -19.1424 11.8379
rfingers 7.12502
rthumb 7.16774 -18.0208
lclavicle 2.89232e-014 6.75868e-015
lhumerus -34.4116 5.87725 83.5207
lradius 33.5652
lwrist 5.01288
lhand -21.1595 22.2394
lfingers 7.12502
lthumb 5.22035 52.1551
rfemur -9.15502 -6.36116 21.7032
rtibia 37.0064
rfoot -22.8231 -8.8485
rtoes 16.666
lfemur -10.0054 4.24447 -18.7017
ltibia 30.3324
lfoot -15.2669 -10.3801
ltoes 13.8672
2684
root 28.7154 17.7131 -0.548514 -13.9102 76.5433 347.036
lowerback 5.2561 0.91167 1.47544
upperback 2.33478 1.37133 2.64171
thorax -0.576406 0.7088 1.8076
lowerneck -14.6734 -3.75384 -11.0292
upperneck 31.6097 -3.83434 7.04079
head 13.4824 -1.81573 4.17228
rclavicle 1.69961e-014 5.1684e-015
rhumerus -32.8548 -13.0899 -77.2837
rradius 26.0206
rwrist -6.80714
rhand -19.3217 11.7987
rfingers 7.12502
rthumb 6.99465 -18.0658
lclavicle 1.69961e-014 5.1684e-015
lhumerus -34.6542 5.91812 83.5962
lradius 33.8629
lwrist 4.65252
lhand -20.2618 22.588
lfingers 7.12502
lthumb 6.08702 52.4806
rfemur -9.39233 -6.9421 22.2739
rtibia 37.0299
rfoot -22.6336 -9.99883
rtoes 20.8787
lfemur -10.0647 4.26477 -18.0604
ltibia 30.3309
lfoot -15.4025 -9.69715
ltoes 13.2515
2685
root 28.7273 17.7208 -0.55884 -11.9179 76.0435 348.775
lowerback 5.13761 0.808811 1.18024
upperback 2.27645 1.21167 2.49786
thorax -0.57003 0.625603 1.83542
lowerneck -14.7163 -3.76969 -10.9615
upperneck 31.6622 -3.91886 7.14908
head 13.5237 -1.83359 4.1927
rclavicle -1.03865e-014 9.93923e-015
rhumerus -32.8287 -12.3727 -77.7763
rradius 26.3074
rwrist -7.44553
rhand -19.2248 11.632
rfingers 7.12502
rthumb 7.08812 -18.2293
lclavicle -1.03865e-014 9.93923e-015
lhumerus -34.9277 5.34493 83.6408
lradius 34.1863
lwrist 4.68831
lhand -19.5495 23.0526
lfingers 7.12502
lthumb 6.77471 52.9242
rfemur -9.85526 -7.92971 21.7402
rtibia 37.176
rfoot -22.6841 -10.8108
rtoes 23.5503
lfemur -10.2588 4.16693 -18.4914
ltibia 30.284
lfoot -15.4711 -9.19853
ltoes 14.799
2686
root 28.7405 17.7254 -0.574665 -10.0473 75.5271 350.425
lowerback 5.01394 0.779654 1.02381
upperback 2.24495 1.15645 2.30995
thorax -0.531497 0.595814 1.73441
lowerneck -14.6898 -3.84021 -10.9293
upperneck 31.6454 -4.08273 7.26874
head 13.5313 -1.88883 4.20831
rclavicle -2.27608e-014 -1.19271e-015
rhumerus -32.7261 -12.37 -77.9819
rradius 26.3909
rwrist -7.36238
rhand -18.8736 11.5507
rfingers 7.12502
rthumb 7.42719 -18.2989
lclavicle -2.27608e-014 -1.19271e-015
lhumerus -34.9959 4.7359 83.7469
lradius 34.2369
lwrist 4.95363
lhand -19.2152 23.2163
lfingers 7.12502
lthumb 7.09742 53.0773
rfemur -10.3182 -9.103 21.2106
rtibia 37.4838
rfoot -22.6462 -11.7567
rtoes 21.827
lfemur -10.3734 3.77083 -18.9948
ltibia 30.1467
lfoot -15.5842 -8.30466
ltoes 15.3577
2687
root 28.7506 17.7257 -0.600958 -8.31393 74.9188 352.009
lowerback 5.02792 0.815915 0.925049
upperback 2.19735 1.1959 2.13392
thorax -0.587421 0.613992 1.60593
lowerneck -14.6014 -3.91787 -10.8873
upperneck 31.6928 -4.26175 7.38841
head 13.555 -1.9488 4.22314
rclavicle 2.68359e-014 -2.38542e-015
rhumerus -32.8108 -12.6841 -77.9511
rradius 26.7349
rwrist -6.83147
rhand -18.8583 11.7093
rfingers 7.12502
rthumb 7.44189 -18.1398
lclavicle 2.68359e-014 -2.38542e-015
lhumerus -34.905 4.78499 83.761
lradius 33.9472
lwrist 4.87732
lhand -18.8126 23.0331
lfingers 7.12502
lthumb 7.48606 52.8806
rfemur -10.6931 -10.0817 20.6751
rtibia 37.8653
rfoot -22.6143 -12.375
rtoes 18.4625
lfemur -10.4118 3.62125 -19.5032
ltibia 29.977
lfoot -15.6388 -7.4072
ltoes 14.5935
2688
root 28.7582 17.727 -0.623583 -6.5701 74.2241 353.698
lowerback 5.15157 0.847766 0.715288
upperback 2.17134 1.22627 1.94665
thorax -0.683997 0.627406 1.52718
lowerneck -14.5524 -4.00732 -10.8688
upperneck 31.7458 -4.45888 7.53648
head 13.5939 -2.01607 4.2509
rclavicle -4.72114e-015 -1.27222e-014
rhumerus -32.8351 -12.4209 -78.1667
rradius 27.1088
rwrist -6.9497
rhand -19.0108 11.9724
rfingers 7.12502
rthumb 7.29474 -17.8818
lclavicle -4.72114e-015 -1.27222e-014
lhumerus -34.8061 4.84501 83.754
lradius 33.5117
lwrist 4.69479
lhand -18.7803 22.5145
lfingers 7.12502
lthumb 7.51725 52.3609
rfemur -10.9516 -10.8538 20.1197
rtibia 38.233
rfoot -22.822 -12.8118
rtoes 16.2508
lfemur -10.4048 3.91455 -19.9889
ltibia 29.8771
lfoot -15.6345 -6.95158
ltoes 14.473
